<svg width="210" height="52" viewBox="0 0 210 52" fill="none" xmlns="http://www.w3.org/2000/svg">
<g clip-path="url(#clip0)">
<path d="M77.9997 18.374H68.1453V13.5766C68.1877 8.02465 69.6703 5.96205 71.3 4.90348C72.9815 3.80687 75.5426 3.7071 77.9993 3.7295C78.245 3.72956 78.4884 3.68128 78.7154 3.58743C78.9424 3.49358 79.1486 3.356 79.3222 3.18258C79.4957 3.00916 79.6333 2.8033 79.7269 2.5768C79.8205 2.3503 79.8684 2.10761 79.8678 1.86264C79.8679 1.61802 79.8196 1.37578 79.7257 1.14977C79.6318 0.923761 79.4942 0.718403 79.3207 0.54543C79.1471 0.372457 78.9411 0.235259 78.7144 0.141672C78.4877 0.0480852 78.2447 -5.54908e-05 77.9993 4.80006e-08C75.554 0.0198693 72.2525 -0.0832819 69.2996 1.75146C66.2963 3.62424 64.3646 7.41885 64.4036 13.5771V18.3744H60.5529C59.5177 18.3744 58.6785 19.2115 58.6785 20.2371C58.6791 20.7322 58.8769 21.2068 59.2284 21.5567C59.5798 21.9066 60.0562 22.1031 60.5529 22.1031H64.4036V50.0566C64.4036 51.0831 65.2403 51.9252 66.2755 51.9252C67.3107 51.9252 68.1483 51.0831 68.1483 50.0566C68.1474 32.1815 68.144 30.9496 68.144 22.1031H77.998C78.4946 22.1026 78.9707 21.906 79.3221 21.5562C79.6734 21.2064 79.8713 20.7321 79.8725 20.2371C79.8742 19.2111 79.0319 18.374 77.9997 18.374ZM122.068 48.1986V48.1902C118.913 48.2181 116.37 48.0291 114.926 46.946C113.497 45.9335 112.228 43.72 112.212 38.0788C112.209 30.055 112.208 26.345 112.208 22.153H122.066C123.1 22.153 123.938 21.3163 123.938 20.2869C123.938 19.2576 123.098 18.4252 122.066 18.4252H112.208C112.208 14.7104 112.212 9.91561 112.212 1.86602C112.212 0.835355 111.371 4.80006e-08 110.337 4.80006e-08C109.303 4.80006e-08 108.473 0.835778 108.473 1.86602V18.4252H104.617C104.122 18.4256 103.647 18.6219 103.297 18.971C102.947 19.32 102.75 19.7933 102.75 20.2869C102.75 20.7811 102.946 21.255 103.297 21.6048C103.647 21.9546 104.122 22.1517 104.617 22.153H108.473V38.0788C108.451 44.1508 109.895 47.926 112.746 49.9771C115.59 51.9531 118.913 51.8985 122.067 51.9247C122.313 51.9245 122.556 51.8759 122.783 51.7818C123.01 51.6878 123.217 51.5501 123.39 51.3765C123.564 51.203 123.701 50.9971 123.795 50.7705C123.889 50.544 123.937 50.3013 123.936 50.0562C123.936 49.8118 123.888 49.5699 123.794 49.3442C123.7 49.1185 123.562 48.9135 123.388 48.741C123.215 48.5685 123.009 48.4317 122.782 48.3387C122.556 48.2456 122.313 48.198 122.068 48.1986ZM208.104 48.2024V48.1936C204.066 48.2206 201.59 47.7814 200.397 46.6793C199.167 45.6664 198.239 43.3214 198.246 38.1575V22.1525H208.102C209.14 22.1525 209.971 21.3159 209.971 20.2865C209.971 19.2571 209.14 18.4247 208.102 18.4247H198.246V1.86222C198.246 1.6178 198.198 1.37569 198.105 1.14976C198.011 0.923839 197.874 0.718547 197.7 0.545659C197.527 0.372771 197.321 0.235687 197.095 0.142268C196.868 0.0488499 196.625 0.000933958 196.38 0.0012683C195.346 0.0012683 194.506 0.831973 194.506 1.86222V18.4247H190.653C190.407 18.4243 190.164 18.4722 189.937 18.5655C189.71 18.6589 189.503 18.7959 189.329 18.9688C189.155 19.1417 189.017 19.347 188.923 19.5731C188.828 19.7992 188.78 20.0416 188.779 20.2865C188.78 20.7816 188.977 21.2562 189.329 21.6061C189.68 21.956 190.156 22.1525 190.653 22.1525H194.506V38.1575C194.518 43.6092 195.364 47.2145 197.95 49.4965C200.573 51.7003 203.959 51.8952 208.103 51.9239C208.598 51.9232 209.073 51.7267 209.423 51.3776C209.773 51.0284 209.97 50.555 209.971 50.0613C209.971 49.8169 209.923 49.5749 209.829 49.3491C209.735 49.1234 209.598 48.9183 209.424 48.7456C209.251 48.5729 209.045 48.4361 208.818 48.3429C208.591 48.2497 208.349 48.2019 208.104 48.2024ZM89.3384 50.0562V20.2392C89.3384 19.2111 90.1777 18.374 91.2053 18.374C91.7015 18.3743 92.1774 18.5709 92.5285 18.9206C92.8796 19.2702 93.0772 19.7445 93.078 20.2392V50.0562C93.078 51.0826 92.2383 51.9247 91.2053 51.9247C90.1777 51.9247 89.3384 51.0826 89.3384 50.0562ZM176.169 50.0562V20.2392C176.169 19.2111 176.999 18.374 178.031 18.374C178.277 18.3738 178.52 18.4219 178.747 18.5156C178.975 18.6092 179.181 18.7466 179.355 18.9198C179.529 19.093 179.667 19.2986 179.761 19.525C179.856 19.7514 179.904 19.9941 179.904 20.2392V50.0562C179.904 50.5515 179.707 51.0264 179.355 51.3767C179.004 51.727 178.528 51.9241 178.031 51.9247C176.999 51.9247 176.169 51.0826 176.169 50.0562ZM150.25 18.2493C144.916 18.2527 140.161 20.7165 137.059 24.5593V1.86602C137.052 1.37649 136.852 0.9095 136.502 0.565925C136.152 0.22235 135.68 0.0297642 135.189 0.0297642C134.698 0.0297642 134.227 0.22235 133.877 0.565925C133.527 0.9095 133.327 1.37649 133.319 1.86602V36.2509C133.319 36.3828 133.368 36.4994 133.396 36.625C134.158 45.2428 141.404 52 150.251 52C159.599 52 167.175 44.4501 167.175 35.1289C167.173 25.8068 159.598 18.2535 150.25 18.2493ZM150.25 48.2713C142.963 48.2574 137.069 42.3909 137.059 35.1289C137.069 27.8622 142.965 21.9932 150.25 21.9805C157.533 21.9927 163.422 27.8609 163.433 35.1289C163.42 42.3905 157.533 48.257 150.25 48.2713Z" fill="black"/>
<path d="M88.5653 10.8918C87.8662 10.1911 87.4727 9.24376 87.4703 8.25552C87.4703 7.27305 87.8681 6.31341 88.5653 5.61925C89.2666 4.92181 90.2163 4.52939 91.2069 4.52771C92.1978 4.52993 93.1477 4.92225 93.8498 5.61925C94.5497 6.31944 94.9436 7.26705 94.9457 8.25552C94.9432 9.24391 94.5494 10.1913 93.8498 10.8918C93.147 11.5879 92.1977 11.9806 91.2069 11.985C90.2165 11.9809 89.2675 11.5881 88.5653 10.8918ZM175.389 10.8918C174.69 10.1914 174.295 9.244 174.293 8.25552C174.293 7.27305 174.691 6.31341 175.389 5.61925C176.092 4.92199 177.043 4.5297 178.035 4.52771C179.018 4.52771 179.979 4.92425 180.678 5.61925C181.375 6.32093 181.768 7.26779 181.771 8.25552C181.767 9.24318 181.375 10.1899 180.678 10.8918C179.979 11.5838 179.018 11.985 178.035 11.985C177.043 11.9808 176.093 11.5881 175.389 10.8918ZM18.7513 46.3508C18.1859 45.7848 17.8684 45.0186 17.8684 44.2197C17.8684 43.4271 18.1856 42.6526 18.7513 42.092C19.3198 41.529 20.0878 41.2119 20.8892 41.2093C21.6843 41.2093 22.4629 41.5315 23.0261 42.092C23.5907 42.6573 23.9084 43.4221 23.9099 44.2197C23.9084 45.0184 23.5908 45.7843 23.0261 46.3508C22.4577 46.9135 21.6902 47.2311 20.8892 47.2352C20.0879 47.2309 19.3202 46.9134 18.7513 46.3508Z" fill="#75C1C2"/>
<path d="M18.7513 28.567C18.1879 27.9997 17.8708 27.2343 17.8684 26.4359C17.8684 25.6416 18.189 24.8663 18.7513 24.3048C19.3193 23.7428 20.0864 23.4263 20.8866 23.4238C21.6843 23.4238 22.4595 23.7451 23.0261 24.3048C23.5909 24.8713 23.9086 25.6372 23.9099 26.4359C23.9076 27.2344 23.5901 27.9999 23.0261 28.567C22.4561 29.1285 21.6879 29.4445 20.8866 29.4472C20.0866 29.4445 19.3197 29.1284 18.7513 28.567Z" fill="black"/>
<path d="M18.7522 10.7828C18.1903 10.2154 17.8734 9.45144 17.8693 8.65421C17.8693 7.85817 18.1933 7.08284 18.7522 6.51974C19.3207 5.95917 20.0878 5.64446 20.8875 5.6438C21.6876 5.64411 22.4555 5.95883 23.0244 6.51974C23.5901 7.08715 23.9084 7.85421 23.9099 8.65421C23.9072 9.45222 23.589 10.217 23.0244 10.7828C22.4559 11.3448 21.6882 11.661 20.8875 11.6629C20.0927 11.6629 19.3141 11.3416 18.7522 10.7828ZM18.6729 19.5903C18.1297 19.0053 17.8418 18.2292 17.8726 17.4326C17.9021 16.633 18.2488 15.8777 18.8366 15.3328C19.4267 14.7934 20.2065 14.5079 21.0066 14.5385C21.8052 14.5691 22.5591 14.9142 23.1029 15.4981C23.6419 16.0836 23.9413 16.8661 23.9078 17.6647C23.873 18.4619 23.5249 19.2135 22.9387 19.7569C22.3497 20.2966 21.5717 20.5842 20.7721 20.558C19.9718 20.5237 19.2175 20.1759 18.6729 19.5903ZM18.7522 37.4587C18.1891 36.8911 17.8718 36.1259 17.8684 35.3277C17.8684 34.5333 18.1924 33.7588 18.7522 33.1974C19.3203 32.6345 20.0882 32.3176 20.8892 32.3156C21.6843 32.3156 22.4629 32.6368 23.0244 33.1974C23.5897 33.7634 23.9079 34.529 23.9099 35.3277C23.9099 36.1212 23.5876 36.8956 23.0244 37.4587C22.4555 38.0192 21.689 38.3351 20.8892 38.3389C20.0887 38.3356 19.3215 38.0196 18.7522 37.4587Z" fill="#75C1C2"/>
<path d="M27.6723 28.5669C27.1091 27.9993 26.7915 27.2342 26.7877 26.4358C26.7877 25.6415 27.1117 24.8662 27.6723 24.3048C28.2408 23.7425 29.0085 23.426 29.8093 23.4237C30.6101 23.427 31.3777 23.7433 31.9471 24.3048C32.5118 24.8714 32.8297 25.6371 32.8317 26.4358C32.8287 27.2344 32.511 27.9997 31.9471 28.5669C31.3774 29.1278 30.6099 29.4437 29.8093 29.4471C29.0087 29.4447 28.2411 29.1286 27.6723 28.5669ZM27.6723 19.6735C27.1092 19.1077 26.7923 18.3437 26.7902 17.5467C26.7902 16.7498 27.1117 15.9778 27.6723 15.413C28.2423 14.8538 29.0095 14.5393 29.8093 14.5371C30.6044 14.5371 31.3822 14.8559 31.9471 15.413C32.5117 15.9808 32.8295 16.7472 32.8317 17.5467C32.8317 18.3376 32.5094 19.1147 31.9471 19.6735C31.3785 20.2368 30.6108 20.555 29.8093 20.5596C29.008 20.5548 28.2406 20.2366 27.6723 19.6735ZM27.6723 37.4586C27.108 36.8917 26.7902 36.1262 26.7877 35.3276C26.7877 34.5332 27.11 33.7587 27.6723 33.1973C28.2405 32.6345 29.0083 32.3177 29.8093 32.3155C30.607 32.3155 31.3839 32.6367 31.9471 33.1973C32.5118 33.7636 32.8296 34.5291 32.8317 35.3276C32.8317 36.1211 32.5094 36.8955 31.9471 37.4586C31.3772 38.0193 30.6099 38.3352 29.8093 38.3388C29.0089 38.3355 28.2417 38.0195 27.6723 37.4586ZM36.5921 28.5669C36.0286 27.9996 35.7115 27.2342 35.7091 26.4358C35.7091 25.6415 36.0297 24.8662 36.5921 24.3048C37.1606 23.7427 37.9283 23.4262 38.729 23.4237C39.525 23.4237 40.3036 23.745 40.8668 24.3048C41.4297 24.8723 41.746 25.6378 41.7472 26.4358C41.745 27.2337 41.4289 27.9989 40.8668 28.5669C40.2977 29.1286 39.5299 29.4447 38.729 29.4471C37.9284 29.4446 37.1609 29.1285 36.5921 28.5669ZM9.82984 28.5669C9.26683 27.9992 8.94954 27.2341 8.94604 26.4358C8.94604 25.6415 9.2692 24.8662 9.82984 24.3048C10.4001 23.7415 11.17 23.425 11.9727 23.4237C12.7628 23.4237 13.5406 23.745 14.1054 24.3048C14.669 24.8721 14.9863 25.6374 14.9892 26.4358C14.9853 27.234 14.6681 27.999 14.1054 28.5669C13.5375 29.1272 12.7718 29.4432 11.9727 29.4471C11.1702 29.4458 10.4004 29.1296 9.82984 28.5669Z" fill="black"/>
<path d="M9.8331 19.6735C9.26587 19.11 8.94644 18.345 8.94507 17.5467C8.94507 16.7498 9.2661 15.9778 9.8331 15.413C10.4011 14.8522 11.1681 14.5374 11.9675 14.5371C12.7618 14.5371 13.5396 14.8559 14.1036 15.413C14.6676 15.9812 14.9853 16.7474 14.9883 17.5467C14.9852 18.344 14.6674 19.108 14.1036 19.6735C13.5357 20.2367 12.7686 20.5549 11.9675 20.5596C11.1667 20.5564 10.3995 20.2379 9.8331 19.6735ZM9.82971 37.4586C9.26772 36.8907 8.95214 36.1253 8.95101 35.3276C8.95101 34.5332 9.26907 33.7587 9.82971 33.1973C10.3985 32.6339 11.1674 32.317 11.9692 32.3155C12.7644 32.3155 13.5447 32.6367 14.1062 33.1973C14.6716 33.7633 14.9899 34.5288 14.9921 35.3276C14.9895 36.1264 14.6712 36.8921 14.1062 37.4586C13.5366 38.0191 12.7695 38.3351 11.9692 38.3388C11.1679 38.3361 10.3997 38.0201 9.82971 37.4586Z" fill="#75C1C2"/>
<path d="M0.912599 28.567C0.347933 28.0004 0.0303388 27.2346 0.0288086 26.4359C0.0293251 25.6371 0.347072 24.8709 0.912599 24.3048C1.48127 23.7429 2.24883 23.4264 3.04956 23.4238C3.85009 23.4262 4.61749 23.7427 5.18567 24.3048C5.74917 24.8721 6.06617 25.6376 6.06818 26.4359C6.06517 27.2341 5.74832 27.9992 5.18567 28.567C4.6172 29.1286 3.84991 29.4448 3.04956 29.4472C2.24902 29.4445 1.48158 29.1284 0.912599 28.567Z" fill="black"/>
</g>
<defs>
<clipPath id="clip0">
<rect width="210" height="52" fill="white"/>
</clipPath>
</defs>
</svg>
