<svg width="140" height="50" viewBox="0 0 140 50" fill="none" xmlns="http://www.w3.org/2000/svg">
<path d="M16.611 49.0216C12.523 48.8605 9.17842 47.7507 6.56322 45.6896C6.06412 45.2959 4.87481 44.1153 4.47581 43.6174C3.41531 42.2945 2.69432 41.007 2.21342 39.5785C0.733616 35.1813 1.49522 29.4112 4.39182 23.0785C6.87192 17.657 10.6988 12.2799 17.3754 4.83269C18.3589 3.73686 21.2877 0.531982 21.3066 0.531982C21.3136 0.531982 21.154 0.806293 20.9531 1.14032C19.2171 4.02504 17.7317 7.42295 16.9225 10.3646C15.6226 15.0848 15.7794 19.1355 17.3817 22.2764C18.487 24.4403 20.3819 26.3146 22.5127 27.3507C26.243 29.1639 31.7044 29.3139 38.374 27.7896C38.8332 27.6841 61.5874 21.6917 88.9392 14.473C116.291 7.25352 138.674 1.35143 138.677 1.3563C138.685 1.36255 75.131 28.3417 42.1393 42.3382C36.9145 44.5542 35.5173 45.1139 33.061 45.9695C26.782 48.157 21.1575 49.2007 16.611 49.0216Z" fill="black"/>
</svg>
